{
  "accessors": [
    {
      "name": "indoor_plant_02-Mesh_0_positions",
      "componentType": 5126,
      "count": 2030,
      "min": [
        -0.34422099590301514,
        1.5563939809799194,
        -0.25751999020576477
      ],
      "max": [
        0.32219499349594116,
        2.8751180171966553,
        0.24025799334049225
      ],
      "type": "VEC3",
      "bufferView": 0,
      "byteOffset": 0
    },
    {
      "name": "indoor_plant_02-Mesh_0_normals",
      "componentType": 5126,
      "count": 2030,
      "min": [
        -0.99998939037323,
        -0.6449431777000427,
        -0.9999977350234985
      ],
      "max": [
        0.99998939037323,
        1,
        0.9999967813491821
      ],
      "type": "VEC3",
      "bufferView": 1,
      "byteOffset": 0
    },
    {
      "name": "indoor_plant_02-Mesh_0_texcoords",
      "componentType": 5126,
      "count": 2030,
      "min": [
        0.013799999840557575,
        0.4056999981403351
      ],
      "max": [
        0.4350999891757965,
        0.9907000064849854
      ],
      "type": "VEC2",
      "bufferView": 2,
      "byteOffset": 0
    },
    {
      "name": "indoor_plant_02-Mesh_0_indices",
      "componentType": 5123,
      "count": 11616,
      "min": [
        0
      ],
      "max": [
        2029
      ],
      "type": "SCALAR",
      "bufferView": 3,
      "byteOffset": 0
    },
    {
      "name": "indoor_plant_02-Mesh_1_positions",
      "componentType": 5126,
      "count": 5618,
      "min": [
        -0.7920269966125488,
        0.03753099963068962,
        -0.7920600175857544
      ],
      "max": [
        0.7920269966125488,
        1.7120590209960938,
        0.7920600175857544
      ],
      "type": "VEC3",
      "bufferView": 0,
      "byteOffset": 24360
    },
    {
      "name": "indoor_plant_02-Mesh_1_normals",
      "componentType": 5126,
      "count": 5618,
      "min": [
        -1,
        -1,
        -0.99998939037323
      ],
      "max": [
        1,
        1,
        0.99998939037323
      ],
      "type": "VEC3",
      "bufferView": 1,
      "byteOffset": 24360
    },
    {
      "name": "indoor_plant_02-Mesh_1_texcoords",
      "componentType": 5126,
      "count": 5618,
      "min": [
        0.008500000461935997,
        0.012299999594688416
      ],
      "max": [
        0.6402999758720398,
        0.45660001039505005
      ],
      "type": "VEC2",
      "bufferView": 2,
      "byteOffset": 16240
    },
    {
      "name": "indoor_plant_02-Mesh_1_indices",
      "componentType": 5123,
      "count": 28416,
      "min": [
        0
      ],
      "max": [
        5617
      ],
      "type": "SCALAR",
      "bufferView": 3,
      "byteOffset": 23232
    },
    {
      "name": "indoor_plant_02-Mesh_2_positions",
      "componentType": 5126,
      "count": 5697,
      "min": [
        -0.7278929948806763,
        1.6142710447311401,
        -0.7279239892959595
      ],
      "max": [
        0.7278929948806763,
        1.6915099620819092,
        0.7279239892959595
      ],
      "type": "VEC3",
      "bufferView": 0,
      "byteOffset": 91776
    },
    {
      "name": "indoor_plant_02-Mesh_2_normals",
      "componentType": 5126,
      "count": 5697,
      "min": [
        -0.2791075110435486,
        0.8504653573036194,
        -0.4717040956020355
      ],
      "max": [
        0.3597263693809509,
        0.9999884366989136,
        0.44122016429901123
      ],
      "type": "VEC3",
      "bufferView": 1,
      "byteOffset": 91776
    },
    {
      "name": "indoor_plant_02-Mesh_2_texcoords",
      "componentType": 5126,
      "count": 5697,
      "min": [
        0.20520000159740448,
        0.36890000104904175
      ],
      "max": [
        0.3939000070095062,
        0.5565000176429749
      ],
      "type": "VEC2",
      "bufferView": 2,
      "byteOffset": 61184
    },
    {
      "name": "indoor_plant_02-Mesh_2_indices",
      "componentType": 5123,
      "count": 33792,
      "min": [
        0
      ],
      "max": [
        5696
      ],
      "type": "SCALAR",
      "bufferView": 3,
      "byteOffset": 80064
    },
    {
      "name": "indoor_plant_02-Mesh_3_positions",
      "componentType": 5126,
      "count": 4712,
      "min": [
        -3.28548002243042,
        2.5447020530700684,
        -1.9332890510559082
      ],
      "max": [
        1.0630500316619873,
        6.21406888961792,
        1.4286530017852783
      ],
      "type": "VEC3",
      "bufferView": 0,
      "byteOffset": 160140
    },
    {
      "name": "indoor_plant_02-Mesh_3_normals",
      "componentType": 5126,
      "count": 4712,
      "min": [
        -0.9989253282546997,
        -0.9943875670433044,
        -0.9994905591011047
      ],
      "max": [
        0.9997847080230713,
        0.9995039105415344,
        0.999398946762085
      ],
      "type": "VEC3",
      "bufferView": 1,
      "byteOffset": 160140
    },
    {
      "name": "indoor_plant_02-Mesh_3_texcoords",
      "componentType": 5126,
      "count": 4712,
      "min": [
        0.7430999875068665,
        0.03220000118017197
      ],
      "max": [
        0.9757999777793884,
        0.9894999861717224
      ],
      "type": "VEC2",
      "bufferView": 2,
      "byteOffset": 106760
    },
    {
      "name": "indoor_plant_02-Mesh_3_indices",
      "componentType": 5123,
      "count": 24672,
      "min": [
        0
      ],
      "max": [
        4711
      ],
      "type": "SCALAR",
      "bufferView": 3,
      "byteOffset": 147648
    },
    {
      "name": "indoor_plant_02-Mesh_4_positions",
      "componentType": 5126,
      "count": 4688,
      "min": [
        -0.9646980166435242,
        2.38201904296875,
        -1.8450870513916016
      ],
      "max": [
        3.5356030464172363,
        6.114295959472656,
        2.922302007675171
      ],
      "type": "VEC3",
      "bufferView": 0,
      "byteOffset": 216684
    },
    {
      "name": "indoor_plant_02-Mesh_4_normals",
      "componentType": 5126,
      "count": 4688,
      "min": [
        -0.9998234510421753,
        -0.997614324092865,
        -0.9812628030776978
      ],
      "max": [
        0.9996423125267029,
        0.9887840747833252,
        0.985675036907196
      ],
      "type": "VEC3",
      "bufferView": 1,
      "byteOffset": 216684
    },
    {
      "name": "indoor_plant_02-Mesh_4_texcoords",
      "componentType": 5126,
      "count": 4688,
      "min": [
        0.7455999851226807,
        0.050200000405311584
      ],
      "max": [
        0.9704999923706055,
        0.9768000245094299
      ],
      "type": "VEC2",
      "bufferView": 2,
      "byteOffset": 144456
    },
    {
      "name": "indoor_plant_02-Mesh_4_indices",
      "componentType": 5123,
      "count": 24384,
      "min": [
        0
      ],
      "max": [
        4687
      ],
      "type": "SCALAR",
      "bufferView": 3,
      "byteOffset": 196992
    },
    {
      "name": "indoor_plant_02-Mesh_5_positions",
      "componentType": 5126,
      "count": 2602,
      "min": [
        -0.8527399897575378,
        -0.009351000189781189,
        -0.8527399897575378
      ],
      "max": [
        0.8527399897575378,
        1.6802599430084229,
        0.8527399897575378
      ],
      "type": "VEC3",
      "bufferView": 0,
      "byteOffset": 272940
    },
    {
      "name": "indoor_plant_02-Mesh_5_normals",
      "componentType": 5126,
      "count": 2602,
      "min": [
        -0.9999852180480957,
        -1,
        -0.9999852180480957
      ],
      "max": [
        0.9999852180480957,
        0.9350148439407349,
        0.9999852180480957
      ],
      "type": "VEC3",
      "bufferView": 1,
      "byteOffset": 272940
    },
    {
      "name": "indoor_plant_02-Mesh_5_texcoords",
      "componentType": 5126,
      "count": 2602,
      "min": [
        0.44929999113082886,
        0.47209998965263367
      ],
      "max": [
        0.7300000190734863,
        0.9904000163078308
      ],
      "type": "VEC2",
      "bufferView": 2,
      "byteOffset": 181960
    },
    {
      "name": "indoor_plant_02-Mesh_5_indices",
      "componentType": 5123,
      "count": 14592,
      "min": [
        0
      ],
      "max": [
        2601
      ],
      "type": "SCALAR",
      "bufferView": 3,
      "byteOffset": 245760
    },
    {
      "name": "Plane_Plane.001-Mesh_0_positions",
      "componentType": 5126,
      "count": 15,
      "min": [
        -4.72589111328125,
        -0.3509509861469269,
        0.5149009823799133
      ],
      "max": [
        -2.3459320068359375,
        9.143186569213867,
        0.5149019956588745
      ],
      "type": "VEC3",
      "bufferView": 0,
      "byteOffset": 304164
    },
    {
      "name": "Plane_Plane.001-Mesh_0_normals",
      "componentType": 5126,
      "count": 15,
      "min": [
        0,
        0,
        1
      ],
      "max": [
        0,
        0,
        1
      ],
      "type": "VEC3",
      "bufferView": 1,
      "byteOffset": 304164
    },
    {
      "name": "Plane_Plane.001-Mesh_0_texcoords",
      "componentType": 5126,
      "count": 15,
      "min": [
        0.7188000082969666,
        0.03620000183582306
      ],
      "max": [
        0.9510999917984009,
        0.9750999808311462
      ],
      "type": "VEC2",
      "bufferView": 2,
      "byteOffset": 202776
    },
    {
      "name": "Plane_Plane.001-Mesh_0_indices",
      "componentType": 5123,
      "count": 48,
      "min": [
        0
      ],
      "max": [
        14
      ],
      "type": "SCALAR",
      "bufferView": 3,
      "byteOffset": 274944
    }
  ],
  "asset": {
    "generator": "obj2gltf",
    "version": "2.0"
  },
  "buffers": [
    {
      "name": "indoor",
      "byteLength": 1086624,
      "uri": "data:application/octet-stream;base64,"
    }
  ],
  "bufferViews": [
    {
      "name": "bufferView_0",
      "buffer": 0,
      "byteLength": 304344,
      "byteOffset": 0,
      "byteStride": 12,
      "target": 34962
    },
    {
      "name": "bufferView_1",
      "buffer": 0,
      "byteLength": 304344,
      "byteOffset": 304344,
      "byteStride": 12,
      "target": 34962
    },
    {
      "name": "bufferView_2",
      "buffer": 0,
      "byteLength": 202896,
      "byteOffset": 608688,
      "byteStride": 8,
      "target": 34962
    },
    {
      "name": "bufferView_3",
      "buffer": 0,
      "byteLength": 275040,
      "byteOffset": 811584,
      "target": 34963
    }
  ],
  "materials": [
    {
      "name": "IDP_root",
      "pbrMetallicRoughness": {
        "baseColorFactor": [
          0.64,
          0.64,
          0.64,
          1
        ],
        "metallicFactor": 0,
        "roughnessFactor": 0.903921569
      },
      "emissiveFactor": [
        0,
        0,
        0
      ],
      "alphaMode": "OPAQUE",
      "doubleSided": false
    },
    {
      "name": "IDP_root_indoor_plant_2_NOR.jpg",
      "pbrMetallicRoughness": {
        "baseColorFactor": [
          0.64,
          0.64,
          0.64,
          1
        ],
        "metallicFactor": 0,
        "roughnessFactor": 0.903921569
      },
      "emissiveFactor": [
        0,
        0,
        0
      ],
      "alphaMode": "OPAQUE",
      "doubleSided": false
    },
    {
      "name": "IDP_ground",
      "pbrMetallicRoughness": {
        "baseColorFactor": [
          0.64,
          0.64,
          0.64,
          1
        ],
        "metallicFactor": 0,
        "roughnessFactor": 0.903921569
      },
      "emissiveFactor": [
        0,
        0,
        0
      ],
      "alphaMode": "OPAQUE",
      "doubleSided": false
    },
    {
      "name": "IDP_leaves",
      "pbrMetallicRoughness": {
        "baseColorFactor": [
          0.64,
          0.64,
          0.64,
          1
        ],
        "metallicFactor": 0,
        "roughnessFactor": 0.903921569
      },
      "emissiveFactor": [
        0,
        0,
        0
      ],
      "alphaMode": "OPAQUE",
      "doubleSided": false
    },
    {
      "name": "IDP_leaves_indoor_plant_2_NOR.jpg",
      "pbrMetallicRoughness": {
        "baseColorFactor": [
          0.64,
          0.64,
          0.64,
          1
        ],
        "metallicFactor": 0,
        "roughnessFactor": 0.903921569
      },
      "emissiveFactor": [
        0,
        0,
        0
      ],
      "alphaMode": "OPAQUE",
      "doubleSided": false
    },
    {
      "name": "IDP_Pot",
      "pbrMetallicRoughness": {
        "baseColorFactor": [
          0.64,
          0.64,
          0.64,
          1
        ],
        "metallicFactor": 0,
        "roughnessFactor": 0.903921569
      },
      "emissiveFactor": [
        0,
        0,
        0
      ],
      "alphaMode": "OPAQUE",
      "doubleSided": false
    },
    {
      "name": "Material.006",
      "pbrMetallicRoughness": {
        "baseColorFactor": [
          0.64,
          0.64,
          0.64,
          1
        ],
        "metallicFactor": 0,
        "roughnessFactor": 0.903921569
      },
      "emissiveFactor": [
        0,
        0,
        0
      ],
      "alphaMode": "OPAQUE",
      "doubleSided": false
    }
  ],
  "meshes": [
    {
      "name": "indoor_plant_02-Mesh",
      "primitives": [
        {
          "attributes": {
            "POSITION": 0,
            "NORMAL": 1,
            "TEXCOORD_0": 2
          },
          "indices": 3,
          "material": 0,
          "mode": 4
        },
        {
          "attributes": {
            "POSITION": 4,
            "NORMAL": 5,
            "TEXCOORD_0": 6
          },
          "indices": 7,
          "material": 1,
          "mode": 4
        },
        {
          "attributes": {
            "POSITION": 8,
            "NORMAL": 9,
            "TEXCOORD_0": 10
          },
          "indices": 11,
          "material": 2,
          "mode": 4
        },
        {
          "attributes": {
            "POSITION": 12,
            "NORMAL": 13,
            "TEXCOORD_0": 14
          },
          "indices": 15,
          "material": 3,
          "mode": 4
        },
        {
          "attributes": {
            "POSITION": 16,
            "NORMAL": 17,
            "TEXCOORD_0": 18
          },
          "indices": 19,
          "material": 4,
          "mode": 4
        },
        {
          "attributes": {
            "POSITION": 20,
            "NORMAL": 21,
            "TEXCOORD_0": 22
          },
          "indices": 23,
          "material": 5,
          "mode": 4
        }
      ]
    },
    {
      "name": "Plane_Plane.001-Mesh",
      "primitives": [
        {
          "attributes": {
            "POSITION": 24,
            "NORMAL": 25,
            "TEXCOORD_0": 26
          },
          "indices": 27,
          "material": 6,
          "mode": 4
        }
      ]
    }
  ],
  "nodes": [
    {
      "name": "indoor_plant_02",
      "mesh": 0
    },
    {
      "name": "Plane_Plane.001",
      "mesh": 1
    }
  ],
  "scene": 0,
  "scenes": [
    {
      "nodes": [
        0,
        1
      ]
    }
  ]
}
