{
  "accessors": [
    {
      "bufferView": 0,
      "componentType": 5126,
      "count": 77380,
      "max": [
        0.10152629762888,
        0.215526893734932,
        0.101904198527336
      ],
      "min": [
        -0.101526603102684,
        -0.215527504682541,
        -0.101902596652508
      ],
      "type": "VEC3"
    },
    {
      "bufferView": 1,
      "componentType": 5126,
      "count": 77380,
      "type": "VEC3"
    },
    {
      "bufferView": 2,
      "componentType": 5126,
      "count": 77380,
      "type": "VEC2"
    },
    {
      "bufferView": 3,
      "componentType": 5125,
      "count": 449997,
      "type": "SCALAR"
    }
  ],
  "asset": {
    "generator": "MeshSmith mesh conversion tool",
    "version": "2.0"
  },
  "bufferViews": [
    {
      "buffer": 0,
      "byteLength": 928560,
      "target": 34962
    },
    {
      "buffer": 0,
      "byteLength": 928560,
      "byteOffset": 928560,
      "target": 34962
    },
    {
      "buffer": 0,
      "byteLength": 619040,
      "byteOffset": 1857120,
      "target": 34962
    },
    {
      "buffer": 0,
      "byteLength": 1799988,
      "byteOffset": 2476160,
      "target": 34963
    }
  ],
  "buffers": [
    {
      "byteLength": 4276148,
      "uri": "f1980_194-150k-4096.bin"
    }
  ],
  "images": [
    {
      "uri": "f1980_194-150k-4096-diffuse.jpg"
    },
    {
      "uri": "f1980_194-150k-4096-occlusion.jpg"
    },
    {
      "uri": "f1980_194-150k-4096-normals.jpg"
    }
  ],
  "materials": [
    {
      "name": "default",
      "normalTexture": {
        "index": 2
      },
      "occlusionTexture": {
        "index": 1
      },
      "pbrMetallicRoughness": {
        "baseColorTexture": {
          "index": 0
        },
        "metallicFactor": 0.100000001490116,
        "roughnessFactor": 0.800000011920929
      }
    }
  ],
  "meshes": [
    {
      "primitives": [
        {
          "attributes": {
            "NORMAL": 1,
            "POSITION": 0,
            "TEXCOORD_0": 2
          },
          "indices": 3,
          "material": 0,
          "mode": 4
        }
      ]
    }
  ],
  "nodes": [
    {
      "mesh": 0
    }
  ],
  "scene": 0,
  "scenes": [
    {
      "nodes": [
        0
      ]
    }
  ],
  "textures": [
    {
      "source": 0
    },
    {
      "source": 1
    },
    {
      "source": 2
    }
  ]
}